<?xml version="1.0" encoding="UTF-8"?>
<svg width="17px" height="18px" viewBox="0 0 17 18" version="1.1" xmlns="http://www.w3.org/2000/svg" xmlns:xlink="http://www.w3.org/1999/xlink">
    <title>文本编辑_填充备份</title>
    <g id="页面-1" stroke="none" stroke-width="1" fill="none" fill-rule="evenodd">
        <g id="iPhone-SE-gen-2备份-15" transform="translate(-1568.000000, -798.000000)" fill="#FFFFFF" fill-rule="nonzero">
            <g id="文本编辑_填充备份" transform="translate(1568.000000, 798.000000)">
                <path d="M5.80014481,14.0427278 C6.17801047,13.5653547 6.62288678,13.1277626 7.04542622,12.6901705 C8.19577586,11.4986319 9.34798691,10.3051989 10.4983366,9.11366028 C11.5723685,8.00168386 12.6464005,6.88970743 13.718571,5.777731 C13.9586925,5.52957272 14.1876456,5.22647864 14.4556882,5.0105241 C14.7348993,4.78699221 14.92104,4.92717323 15.1388247,5.15449379 C15.3305496,5.35529362 15.5166903,5.56177647 15.7046925,5.76447064 C15.7475048,5.81182909 15.995072,6.00884024 15.995072,6.07703641 C15.995072,6.07703641 15.9894878,1.29572722 15.9894878,1.29572722 C15.9894878,0.581561776 15.4180358,0 14.7162852,0 L1.27320252,0 C0.571452008,0 0,0.581561776 0,1.29572722 L0,16.3291939 C0,17.0433593 0.571452008,17.6249211 1.27320252,17.6249211 L4.61256702,17.6419701 L5.27522798,15.1130288 C5.27708939,15.1130288 5.43158618,14.508735 5.80014481,14.0427278 Z M7.18875457,7.50536729 L2.57432614,7.50536729 C2.3565415,7.50536729 2.17970782,7.32540518 2.17970782,7.10376763 C2.17970782,6.88213008 2.3565415,6.70216796 2.57432614,6.70216796 L7.18875457,6.70216796 C7.40653921,6.70216796 7.58338731,6.88213008 7.58338731,7.10376763 C7.5852343,7.32540518 7.40653921,7.50536729 7.18875457,7.50536729 Z M10.4015434,5.38560303 L2.57432614,5.38560303 C2.3565415,5.38560303 2.17970782,5.20564092 2.17970782,4.98400337 C2.17970782,4.76236582 2.3565415,4.5824037 2.57432614,4.5824037 L10.4015434,4.5824037 C10.619328,4.5824037 10.7961617,4.76236582 10.7961617,4.98400337 C10.7961617,5.20564092 10.619328,5.38560303 10.4015434,5.38560303 Z M12.5868354,3.26394443 L2.57432614,3.26394443 C2.3565415,3.26394443 2.17970782,3.08398232 2.17970782,2.86234477 C2.17970782,2.64070722 2.3565415,2.46074511 2.57432614,2.46074511 L12.5868354,2.46074511 C12.8046201,2.46074511 12.9814537,2.64070722 12.9814537,2.86234477 C12.9814537,3.08398232 12.8046201,3.26394443 12.5868354,3.26394443 Z" id="形状"></path>
                <path d="M16.8475965,8.7859398 L15.0103876,6.91622816 C14.8149398,6.71732267 14.4724409,6.71732267 14.2769932,6.91622816 L6.58938145,14.7360556 C6.55773753,14.7682593 6.53353924,14.8099348 6.5223708,14.8535045 L5.75360963,17.6590192 C5.72941133,17.748053 5.75174822,17.8446643 5.81317466,17.9128605 C5.86343265,17.9677963 5.93416612,18 6.006761,18 C6.02351367,18 6.03840493,17.9981057 6.05515759,17.9962113 L9.02410206,17.4298043 C9.07622146,17.4203326 9.12461805,17.3938118 9.16184619,17.3559251 L16.8494579,9.53420333 C17.0504899,9.32772048 17.0504899,8.99242265 16.8475965,8.7859398 Z M15.6581573,10.3374027 C15.5595027,10.4378026 15.4050059,10.4434856 15.3119355,10.3487687 L13.4784495,8.48284572 C13.3853791,8.38812881 13.3909633,8.23089876 13.4896179,8.13049884 C13.5882725,8.03009893 13.7446307,8.02441591 13.8358396,8.11913281 L15.6693257,9.98505578 C15.7623961,10.0778783 15.7568119,10.2370027 15.6581573,10.3374027 Z" id="形状"></path>
            </g>
        </g>
    </g>
</svg>