<?xml version="1.0" encoding="UTF-8"?>
<svg width="18px" height="18px" viewBox="0 0 18 18" version="1.1" xmlns="http://www.w3.org/2000/svg" xmlns:xlink="http://www.w3.org/1999/xlink">
    <title>05-医嘱执行备份</title>
    <g id="页面-1" stroke="none" stroke-width="1" fill="none" fill-rule="evenodd">
        <g id="iPhone-SE-gen-2备份-15" transform="translate(-1393.000000, -798.000000)" fill="#FFFFFF" fill-rule="nonzero">
            <g id="05-医嘱执行备份" transform="translate(1393.000000, 798.000000)">
                <path d="M14.8907923,0.0117758972 L3.08351178,0.0117758972 C1.5249342,-0.122120147 0.149275526,1.02357989 0,2.57983993 L0,15.4201601 C0.149174863,16.9818787 1.53299325,18.1295923 3.09635974,17.9882241 L14.9036403,17.9882241 C16.4670068,18.1295923 17.8508251,16.9818787 18,15.4201601 L18,2.57983993 C17.8508251,1.0181213 16.4670068,-0.129592311 14.9036403,0.0117758972 M2.27408994,5.31482812 C2.30791553,4.98608445 2.60001466,4.74567537 2.92933619,4.77553467 L4.49678801,4.77553467 L4.49678801,3.49150266 C4.5306136,3.16275899 4.82271273,2.92234991 5.15203426,2.95220921 C5.48135579,2.92234991 5.77345492,3.16275899 5.80728051,3.49150266 L5.80728051,4.77553467 L7.37473233,4.77553467 C7.70405386,4.74567537 7.99615299,4.98608445 8.02997859,5.31482812 C7.99615299,5.64357178 7.70405386,5.88398086 7.37473233,5.85412156 L5.80728051,5.85412156 L5.80728051,7.13815358 C5.80086525,7.30301625 5.72719275,7.45806588 5.60340537,7.56722504 C5.47961799,7.6763842 5.31651014,7.73013408 5.15203426,7.71596799 C4.82271273,7.74582728 4.5306136,7.50541821 4.49678801,7.17667454 L4.49678801,5.89264252 L2.92933619,5.89264252 C2.76207679,5.89558424 2.59885086,5.84120797 2.46680942,5.73855868 C2.34976917,5.64974774 2.2789818,5.5129736 2.27408994,5.3661894 M14.6852248,15.9080922 L3.28907923,15.9080922 C3.11756631,15.9378178 2.94476435,15.8629368 2.8492467,15.7174977 C2.75372904,15.5720587 2.75372904,15.3838244 2.8492467,15.2383853 C2.94476435,15.0929462 3.11756631,15.0180652 3.28907923,15.0477908 L14.6852248,15.0477908 C14.8567378,15.0180652 15.0295397,15.0929462 15.1250574,15.2383853 C15.220575,15.3838244 15.220575,15.5720587 15.1250574,15.7174977 C15.0295397,15.8629368 14.8567378,15.9378178 14.6852248,15.9080922 M14.6852248,12.7236928 L3.28907923,12.7236928 C3.11293555,12.7267474 2.94589543,12.6456619 2.83940043,12.5054074 C2.7472701,12.3791697 2.7472701,12.2079145 2.83940043,12.0816768 C2.94589543,11.9414224 3.11293555,11.8603369 3.28907923,11.8633914 L14.6852248,11.8633914 C14.8613685,11.8603369 15.0284086,11.9414224 15.1349036,12.0816768 C15.227034,12.2079145 15.227034,12.3791697 15.1349036,12.5054074 C15.0284086,12.6456619 14.8613685,12.7267474 14.6852248,12.7236928 M14.6852248,9.53929345 L9.98286938,9.53929345 C9.81135646,9.56901903 9.6385545,9.49413803 9.54303685,9.34869895 C9.44751919,9.20325987 9.44751919,9.01502557 9.54303685,8.86958649 C9.6385545,8.72414742 9.81135646,8.64926641 9.98286938,8.678992 L14.6852248,8.678992 C14.8567378,8.64926641 15.0295397,8.72414742 15.1250574,8.86958649 C15.220575,9.01502557 15.220575,9.20325987 15.1250574,9.34869895 C15.0295397,9.49413803 14.8567378,9.56901903 14.6852248,9.53929345 M14.6852248,7.71596799 L9.98286938,7.71596799 C9.81135646,7.74569357 9.6385545,7.67081257 9.54303685,7.52537349 C9.44751919,7.37993441 9.44751919,7.19170011 9.54303685,7.04626103 C9.6385545,6.90082196 9.81135646,6.82594095 9.98286938,6.85566654 L14.6852248,6.85566654 C14.8567378,6.82594095 15.0295397,6.90082196 15.1250574,7.04626103 C15.220575,7.19170011 15.220575,7.37993441 15.1250574,7.52537349 C15.0295397,7.67081257 14.8567378,7.74569357 14.6852248,7.71596799 M14.6852248,6.07240701 L9.98286938,6.07240701 C9.72198753,6.09521457 9.48956417,5.90825344 9.45610278,5.64867644 C9.45201433,5.51009358 9.50710882,5.37631589 9.6076236,5.28076116 C9.70813838,5.18520644 9.84458152,5.13689823 9.98286938,5.14790396 L14.6852248,5.14790396 C14.9461067,5.12509639 15.17853,5.31205753 15.2119914,5.57163452 C15.17853,5.83121152 14.9461067,6.01817265 14.6852248,5.99536509" id="形状"></path>
            </g>
        </g>
    </g>
</svg>