<?xml version="1.0" encoding="UTF-8"?>
<svg width="18px" height="18px" viewBox="0 0 18 18" version="1.1" xmlns="http://www.w3.org/2000/svg" xmlns:xlink="http://www.w3.org/1999/xlink">
    <title>数据库,数据 (1)备份</title>
    <g id="页面-1" stroke="none" stroke-width="1" fill="none" fill-rule="evenodd">
        <g id="iPhone-SE-gen-2备份-15" transform="translate(-1201.000000, -798.000000)" fill="#FFFFFF" fill-rule="nonzero">
            <g id="数据库,数据-(1)备份" transform="translate(1201.000000, 798.000000)">
                <path d="M9,-3.87928398e-16 C4.03242188,-3.87928398e-16 0.00527343512,1.88613282 0,4.21347656 L0,13.78125 C0,16.1103516 4.02890625,18 9,18 C13.9710938,18 18,16.1103516 18,13.78125 L18,4.21347656 C17.9947266,1.88613282 13.9675781,-3.87928398e-16 9,-3.87928398e-16 Z M2.95312501,15.7447266 C2.56464845,15.7447266 2.25,15.4300781 2.25,15.0416016 C2.25,14.653125 2.56464843,14.3384766 2.95312501,14.3384766 C3.34160158,14.3384766 3.65624999,14.653125 3.65624999,15.0416016 C3.65624999,15.4300781 3.34160156,15.7447266 2.95312501,15.7447266 Z M16.875,12.4277344 C16.5603516,12.6298828 16.2158203,12.8179688 15.8414062,12.99375 C13.9957031,13.8585937 11.5646484,14.3349609 9,14.3349609 C6.43535157,14.3349609 4.00429687,13.8585937 2.15859375,12.99375 C1.78417968,12.8179688 1.43964844,12.6298828 1.12499999,12.4277344 L1.12499999,11.0355469 C2.6595703,12.3328125 5.61093749,13.2099609 9,13.2099609 C12.3890625,13.209961 15.3404297,12.3328125 16.875,11.0355469 L16.875,12.4277344 Z M2.25,10.2603516 C2.25,9.871875 2.56464843,9.55722657 2.95312501,9.55722657 C3.34160158,9.55722657 3.65624999,9.871875 3.65624999,10.2603516 C3.65624999,10.6488281 3.34160156,10.9634766 2.95312501,10.9634766 C2.56464845,10.9634766 2.25,10.6488281 2.25,10.2603516 Z M16.875,7.65527345 C16.5603516,7.85742189 16.2158203,8.04550782 15.8414062,8.22128907 C13.9957031,9.08613281 11.5646484,9.5625 9,9.5625 C6.43535157,9.5625 4.00429687,9.08613281 2.15859375,8.22128907 C1.78417968,8.04550782 1.43964844,7.85742189 1.12499999,7.65527345 L1.12499999,6.26308594 C2.6595703,7.56035156 5.61093749,8.4375 9,8.4375 C12.3890625,8.4375 15.3404297,7.56035156 16.875,6.26308594 L16.875,7.65527345 L16.875,7.65527345 Z" id="形状"></path>
            </g>
        </g>
    </g>
</svg>