<?xml version="1.0" encoding="UTF-8"?>
<svg width="18px" height="18px" viewBox="0 0 18 18" version="1.1" xmlns="http://www.w3.org/2000/svg" xmlns:xlink="http://www.w3.org/1999/xlink">
    <title>30应用程序备份</title>
    <g id="页面-1" stroke="none" stroke-width="1" fill="none" fill-rule="evenodd">
        <g id="iPhone-SE-gen-2备份-15" transform="translate(-1027.000000, -798.000000)" fill="#FFFFFF" fill-rule="nonzero">
            <g id="30应用程序备份" transform="translate(1027.000000, 798.000000)">
                <path d="M7.875,8.25 L0.375,8.25 C0.16875,8.25 0,8.08125 0,7.875 L0,0.375 C0,0.16875 0.16875,0 0.375,0 L7.875,0 C8.08125,0 8.25,0.16875 8.25,0.375 L8.25,7.875 C8.25,8.08125 8.08125,8.25 7.875,8.25 Z M8.25,17.625 L8.25,10.125 C8.25,9.91875 8.08125,9.75 7.875,9.75 L0.375,9.75 C0.16875,9.75 0,9.91875 0,10.125 L0,17.625 C0,17.83125 0.16875,18 0.375,18 L7.875,18 C8.08125,18 8.25,17.83125 8.25,17.625 Z M16.5,1.5 L11.25,1.5 L11.25,6.75 L16.5,6.75 L16.5,1.5 M17.625,0 C17.83125,0 18,0.16875 18,0.375 L18,7.875 C18,8.08125 17.83125,8.25 17.625,8.25 L10.125,8.25 C9.91875,8.25 9.75,8.08125 9.75,7.875 L9.75,0.375 C9.75,0.16875 9.91875,0 10.125,0 L17.625,0 Z M18,17.625 L18,10.125 C18,9.91875 17.83125,9.75 17.625,9.75 L10.125,9.75 C9.91875,9.75 9.75,9.91875 9.75,10.125 L9.75,17.625 C9.75,17.83125 9.91875,18 10.125,18 L17.625,18 C17.83125,18 18,17.83125 18,17.625 Z" id="形状"></path>
            </g>
        </g>
    </g>
</svg>