<?xml version="1.0" encoding="UTF-8"?>
<svg width="144px" height="148px" viewBox="0 0 144 148" version="1.1" xmlns="http://www.w3.org/2000/svg" xmlns:xlink="http://www.w3.org/1999/xlink">
    <title>缺失</title>
    <g id="页面-1" stroke="none" stroke-width="1" fill="none" fill-rule="evenodd">
        <g id="iPhone-SE-gen-2备份-15" transform="translate(-888.000000, -628.000000)" fill="#9BA8CA" fill-rule="nonzero">
            <g id="缺失" transform="translate(888.000000, 628.000000)">
                <path d="M0,139 C0,143.970563 32.0116404,148 71.5,148 C110.98836,148 143,143.970563 143,139 C143,134.029437 110.98836,130 71.5,130 C32.0116404,130 0,134.029437 0,139 Z" id="路径" opacity="0.1"></path>
                <path d="M3,48.7369128 C3,50.2543624 4.15865992,51.4147651 5.67383059,51.4147651 C7.18900126,51.4147651 8.34766119,50.2543624 8.34766119,48.7369128 C8.34766119,47.2194631 7.18900126,46.0590604 5.67383059,46.0590604 C4.24778761,46.0590604 3,47.3087248 3,48.7369128 Z M144,128.090604 C140.613148,128.983221 139.900126,129.697315 139.097977,133 C138.2067,129.608054 137.493679,128.89396 134.195954,128.090604 C137.493679,127.197987 138.295828,126.483893 139.097977,123.181208 C139.900126,126.483893 140.613148,127.287248 144,128.090604 Z M17.8843236,39.3644295 C13.517067,40.5248322 12.6257901,41.4174497 11.4671302,45.7912752 C10.3084703,41.4174497 9.41719343,40.5248322 5.04993679,39.3644295 C9.41719343,38.2040268 10.3084703,37.2221477 11.4671302,32.9375839 C12.5366625,37.3114094 13.517067,38.2040268 17.8843236,39.3644295 Z M124.837547,24.0114094 C122.163717,24.7255034 121.628951,25.2610738 120.915929,27.9389262 C120.202908,25.2610738 119.668142,24.7255034 116.994311,24.0114094 C119.668142,23.2973154 120.202908,22.761745 120.915929,20.0838926 C121.539823,22.761745 122.163717,23.2973154 124.837547,24.0114094 Z M136.335019,10.2651007 C129.383059,12.0503356 127.957016,13.5677852 126.085335,20.5302013 C124.302781,13.5677852 122.787611,12.1395973 115.835651,10.2651007 C122.787611,8.47986577 124.213654,6.96241611 126.085335,0 C127.867889,6.87315436 129.383059,8.39060403 136.335019,10.2651007 Z" id="形状" opacity="0.5"></path>
                <polygon id="路径" opacity="0.2" points="55 107.362903 55 108.072581 60.8666667 113.483871 83.3555556 102.572581 63 115.612903 63 122 66.2888889 118.806452 66.2888889 118.717742 66.2888889 118.806452 69.5777778 122 87 100.709677 87 100"></polygon>
                <path d="M131.911029,78.7705882 L131.911029,78.5926471 C131.911029,78.4147059 131.822059,78.3257353 131.822059,78.1477941 L131.822059,78.0588235 L112.693382,28.1463235 C109.935294,19.6941176 102.105882,14 93.2088235,14 L49.7022059,14 C40.8051471,14 32.9757353,19.6941176 30.2176471,28.1463235 L11.0889706,78.0588235 L11.0889706,78.1477941 C11,78.3257353 11,78.4147059 11,78.5926471 L11,114.536765 C11,125.836029 20.1639706,135 31.4632353,135 L111.536765,135 C122.836029,135 132,125.836029 132,114.536765 L132,78.9485294 C131.911029,78.8595588 131.911029,78.8595588 131.911029,78.7705882 L131.911029,78.7705882 Z M35.2,30.0147059 C35.2,30.0147059 35.2,29.9257353 35.2889706,29.9257353 C37.2463235,23.5198529 43.1183824,19.3382353 49.7022059,19.3382353 L93.1198529,19.3382353 C99.7036765,19.3382353 105.575735,23.5198529 107.622059,29.8367647 C107.622059,29.8367647 107.622059,29.9257353 107.711029,29.9257353 L125.416176,76.1904412 L84.7566176,76.1904412 C83.2441176,76.1904412 82.0875,77.3470588 82.0875,78.8595588 C82.0875,84.7316176 77.2830882,89.5360294 71.4110294,89.5360294 C65.5389706,89.5360294 60.7345588,84.7316176 60.7345588,78.8595588 C60.7345588,77.3470588 59.5779412,76.1904412 58.0654412,76.1904412 L17.4948529,76.1904412 L35.2,30.0147059 Z M126.572794,114.536765 C126.572794,122.9 119.811029,129.661765 111.447794,129.661765 L31.3742647,129.661765 C23.0110294,129.661765 16.2492647,122.9 16.2492647,114.536765 L16.2492647,81.6176471 L55.6632353,81.6176471 C56.9088235,89.1801471 63.4926471,94.9632353 71.4110294,94.9632353 C79.3294118,94.9632353 85.9132353,89.1801471 87.1588235,81.6176471 L126.572794,81.6176471 L126.572794,114.536765 Z" id="形状" opacity="0.5"></path>
                <path d="M71,84 C68.5049505,84 66.5445545,82.0369231 66.5445545,79.5384615 L66.5445545,70.6153846 L26,70.6153846 L40.6138614,32.4246154 L40.7029703,32.2461538 C41.950495,28.4984615 45.3366337,26 49.2574257,26 L92.7425743,26 C96.6633663,26 100.049505,28.4984615 101.29703,32.2461538 L101.386139,32.4246154 L116,70.6153846 L75.4554455,70.6153846 L75.4554455,79.5384615 C75.4554455,82.0369231 73.4950495,84 71,84 L71,84 Z" id="路径" opacity="0.2"></path>
            </g>
        </g>
    </g>
</svg>